<?xml version="1.0" encoding="UTF-8"?><svg id="Layer_1" xmlns="http://www.w3.org/2000/svg" viewBox="0 0 194.22 174.44"><path d="M150.32,36.95c-6.1-5.81-11.64-6.81-19.2-6.81h-11.54v10.14c0,4.82,3.91,8.72,8.72,8.72,0,0,3.31,.05,3.85,.13,.19,.03,2.02-.12,4.08,2.07,2.05,2.19,1.84,3.43,1.84,5.89,0,.05,.05,1.61,.05,1.61,0,4.82,3.91,8.72,8.72,8.72h10.14v-11.54c0-7.57-1.01-12.92-6.65-18.94Z" fill="#231f20"/><path d="M128.32,89.91v20.57c0,4.78-3.88,8.66-8.66,8.66h-41.49c-4.78,0-8.66-3.88-8.66-8.66l.04-12.9h.05s-.02-7.63-.02-7.63l.02-7.62h-.05s-.04-12.91-.04-12.91c0-4.78,3.88-8.66,8.66-8.66h20.97c5.32,0,9.56-4.43,9.32-9.74-.13-2.8-.25-5.6-.36-8.4h-43.73c-8.35,0-15.11,6.77-15.11,15.11V122.16c0,8.35,6.77,15.11,15.11,15.11h67.71c8.33,0,15.14-6.81,15.14-15.14v-42.29c-3.29,.2-6.58,.39-9.87,.56-5.06,.26-9.03,4.43-9.03,9.5Z" fill="#231f20"/></svg>